<?xml version="1.0" encoding="UTF-8"?>
<svg clip-rule="evenodd" fill-rule="evenodd" image-rendering="optimizeQuality" shape-rendering="geometricPrecision" text-rendering="geometricPrecision" version="1.1" viewBox="655.78 631.86 6914.4 1736.4" xml:space="preserve" xmlns="http://www.w3.org/2000/svg">
 <defs>
  <style type="text/css">
   
    .fil0 {fill:none}
    .fil3 {fill:#0077FF}
    .fil1 {fill:#0A1759;fill-rule:nonzero}
    .fil2 {fill:url(#a)}
   
  </style>
    <mask id="c">
  <linearGradient id="b" x1="1762.3" x2="1149.7" y1="1763.8" y2="1599.6" gradientUnits="userSpaceOnUse">
   <stop stop-color="#fff" offset="0"/>
   <stop stop-color="#fff" stop-opacity="0" offset="1"/>
  </linearGradient>
     <rect x="1149.7" y="1056" width="889.48" height="1288.3" fill="url(#b)"/>
    </mask>
  <linearGradient id="a" x1="669.4" x2="2064.2" y1="2206.6" y2="1401.3" gradientUnits="userSpaceOnUse">
   <stop stop-color="#07f" offset="0"/>
   <stop stop-color="#00ECBB" offset="1"/>
  </linearGradient>
 </defs>
 
  
  <rect class="fil0" width="8226" height="3000.1"/>
  
   <path class="fil1" d="m2477.3 2099.2c0 10.25 2.563 12.813 11.532 12.813h171.7c10.25 0 12.813-2.563 12.813-12.813v-386.96h188.36l194.76 388.24c3.845 8.969 7.689 11.532 15.376 11.532h188.36c8.97 0 14.095-6.406 8.97-14.095l-213.98-406.18c129.41-33.315 225.51-135.82 225.51-288.3 0-189.64-130.7-313.92-316.49-313.92h-369.02c-78.161 0-117.88 41.003-117.88 117.88v891.8zm196.04-539.44v-313.92h266.52c97.381 0 153.76 67.91 153.76 157.6 0 90.974-56.378 156.32-158.88 156.32h-261.39zm897.97 426.68c-78.161 0-111.48-37.159-111.48-90.974 0-65.348 43.565-108.91 134.54-108.91 108.91 0 179.38 57.66 179.38 129.41v70.473h-202.45zm266.52 125.57c62.786 0 103.79-37.158 103.79-99.944v-388.24c0-161.45-114.04-252.42-313.92-252.42-276.77 0-324.18 187.07-324.18 233.2 0 8.97 2.562 12.814 11.531 12.814h143.51c8.969 0 14.094-3.844 15.376-12.814 11.532-64.065 58.941-102.5 144.79-102.5 108.91 0 153.76 52.534 153.76 131.98v102.51s-44.847-67.911-207.58-67.911c-167.85 0-274.2 90.974-274.2 229.36 0 148.63 108.91 213.98 260.11 213.98h287.02zm353.41-575.32h149.92c117.88 0 185.79 83.287 185.79 215.26 0 129.41-58.941 216.54-166.57 216.54-105.07 0-169.14-70.473-169.14-206.29v-225.51zm-171.7 818.77c0 10.251 2.563 12.813 11.532 12.813h149.92c8.97 0 12.813-2.562 12.813-12.813v-319.05s51.253 84.567 194.76 84.567c179.39 0 312.64-152.48 312.64-374.15 0-221.67-147.35-363.9-353.65-363.9h-224.23c-62.785 0-103.79 37.159-103.79 99.944v872.58zm737.81-256.26c0 10.25 2.562 12.813 11.532 12.813h156.32c8.97 0 12.814-2.563 12.814-12.813v-703.45c0-8.968-3.844-12.813-12.814-12.813h-156.32c-8.97 0-11.532 3.845-11.532 12.813v703.45zm89.693-996.87c-56.379 0-103.79 39.721-103.79 98.662 0 60.222 47.409 96.099 103.79 96.099 58.941 0 105.07-35.877 105.07-96.099 0-58.941-46.127-98.662-105.07-98.662zm507.17 855.93c-117.88 0-187.07-83.286-187.07-215.26 0-129.41 58.941-216.54 167.85-216.54 103.79 0 170.42 70.473 170.42 207.58v224.23h-151.2zm217.83 153.76c64.066 0 103.79-37.158 103.79-99.944v-909.74c0-10.251-2.563-12.814-11.532-12.814h-149.92c-8.968 0-12.813 2.563-12.813 12.814v356.21s-51.253-84.567-196.04-84.567c-178.1 0-310.08 152.48-310.08 374.15 0 221.67 146.07 363.9 352.36 363.9h224.23zm445.66-125.57c-78.161 0-111.48-37.159-111.48-90.974 0-65.348 43.565-108.91 134.54-108.91 108.91 0 179.38 57.66 179.38 129.41v70.473h-202.45zm266.52 125.57c62.786 0 103.79-37.158 103.79-99.944v-388.24c0-161.45-114.04-252.42-313.92-252.42-276.77 0-324.18 187.07-324.18 233.2 0 8.97 2.562 12.814 11.531 12.814h143.51c8.969 0 14.094-3.844 15.376-12.814 11.532-64.065 58.941-102.5 144.79-102.5 108.91 0 153.76 52.534 153.76 131.98v102.51s-44.846-67.911-207.58-67.911c-167.85 0-274.2 90.974-274.2 229.36 0 148.63 108.91 213.98 260.11 213.98h287.02zm221.43-266.52c0 169.14 87.13 266.52 257.55 266.52h105.07c8.97 0 11.532-2.563 11.532-12.813v-130.7c0-10.25-2.562-12.813-11.532-12.813h-88.411c-52.535 0-96.1-33.315-96.1-98.662v-319.05h184.51c8.97 0 11.532-2.563 11.532-12.814v-129.41c0-10.25-2.562-12.813-11.532-12.813h-184.51v-193.48c0-8.97-2.562-11.532-12.813-11.532h-152.48c-8.969 0-12.813 2.562-12.813 11.532v193.48h-98.662c-8.969 0-11.532 2.563-11.532 12.813v129.41c0 10.251 2.563 12.814 11.532 12.814h98.662v307.52zm694.24 140.95c-78.161 0-111.48-37.159-111.48-90.974 0-65.348 43.564-108.91 134.54-108.91 108.91 0 179.39 57.66 179.39 129.41v70.473h-202.45zm266.52 125.57c62.785 0 103.79-37.158 103.79-99.944v-388.24c0-161.45-114.04-252.42-313.92-252.42-276.77 0-324.18 187.07-324.18 233.2 0 8.97 2.562 12.814 11.532 12.814h143.51c8.969 0 14.095-3.844 15.376-12.814 11.532-64.065 58.941-102.5 144.79-102.5 108.91 0 153.76 52.534 153.76 131.98v102.51s-44.846-67.911-207.57-67.911c-167.85 0-274.2 90.974-274.2 229.36 0 148.63 108.91 213.98 260.11 213.98h287.02z"/>
   <path class="fil2" d="m1096.4 711.37c284.32-164.15 651.26-65.834 815.42 218.49l4e-3 0.013c164.16 284.32 65.836 651.26-218.49 815.41l-6e-3 4e-3 -397.96-689.3-639.62 369.31v-459.52l440.66-254.41zm252.28 1232.9-692.94 400.07v-459.52l493.96-285.19 198.97 344.64z"/>
   <polygon class="fil3" points="1579.7 2344.3 1149.7 1599.6 1295.4 1056 2039.2 2344.3" mask="url(#c)"/>
  
 
</svg>
